<svg version="1.1" xmlns="http://www.w3.org/2000/svg" xmlns:xlink="http://www.w3.org/1999/xlink" width="800" height="145"><defs/><g transform="translate(0,0)"><g><rect fill="#FFFFFF" stroke="none" x="0" y="0" width="800" height="145"/></g><g transform="translate(0,0) matrix(1,0,0,1,80,50)"><g><g transform="translate(0,0) scale(1,0.75)"><g><path fill="#FFFFFF" stroke="none" d="M 0 0 L 100 0 Q 100 0 100 0 L 100 100 Q 100 100 100 100 L 0 100 Q 0 100 0 100 L 0 0 Q 0 0 0 0 Z"/><g transform="scale(1,1.3333333333333333)"><path fill="none" stroke="none" d="M 0 0 L 100 0 Q 100 0 100 0 L 100 75 Q 100 75 100 75 L 0 75 Q 0 75 0 75 L 0 0 Q 0 0 0 0 Z"/><path fill="none" stroke="#333333" d="M 0 0 M 0 0 L 100 0 Q 100 0 100 0 L 100 75 Q 100 75 100 75 L 0 75 Q 0 75 0 75 L 0 0 Q 0 0 0 0 Z" stroke-miterlimit="10" stroke-width="2"/></g></g><g><g transform="scale(1,1.3333333333333333)"><path fill="rgb(0,0,0)" stroke="none" d="M 2 1.5 L 2 72.75 L 97 72.75 L 97 2.25 L 3 2.25 Z" fill-opacity="0" opacity="0"/><path fill="none" stroke="#3C7626" d="M 2 1.5 M 2 1.5 L 2 5.5 M 2 5.5 M 2 7.5 L 2 11.5 M 2 11.5 M 2 13.5 L 2 17.5 M 2 17.5 M 2 19.5 L 2 23.5 M 2 23.5 M 2 25.5 L 2 29.5 M 2 29.5 M 2 31.5 L 2 35.5 M 2 35.5 M 2 37.5 L 2 41.5 M 2 41.5 M 2 43.5 L 2 47.5 M 2 47.5 M 2 49.5 L 2 53.5 M 2 53.5 M 2 55.5 L 2 59.5 M 2 59.5 M 2 61.5 L 2 65.5 M 2 65.5 M 2 67.5 L 2 71.5 M 2 71.5 M 2.75 72.75 L 6.75 72.75 M 6.75 72.75 M 8.75 72.75 L 12.75 72.75 M 12.75 72.75 M 14.75 72.75 L 18.75 72.75 M 18.75 72.75 M 20.75 72.75 L 24.75 72.75 M 24.75 72.75 M 26.75 72.75 L 30.75 72.75 M 30.75 72.75 M 32.75 72.75 L 36.75 72.75 M 36.75 72.75 M 38.75 72.75 L 42.75 72.75 M 42.75 72.75 M 44.75 72.75 L 48.75 72.75 M 48.75 72.75 M 50.75 72.75 L 54.75 72.75 M 54.75 72.75 M 56.75 72.75 L 60.75 72.75 M 60.75 72.75 M 62.75 72.75 L 66.75 72.75 M 66.75 72.75 M 68.75 72.75 L 72.75 72.75 M 72.75 72.75 M 74.75 72.75 L 78.75 72.75 M 78.75 72.75 M 80.75 72.75 L 84.75 72.75 M 84.75 72.75 M 86.75 72.75 L 90.75 72.75 M 90.75 72.75 M 92.75 72.75 L 96.75 72.75 M 96.75 72.75 M 97 71 L 97 67 M 97 67 M 97 65 L 97 61 M 97 61 M 97 59 L 97 55 M 97 55 M 97 53 L 97 49 M 97 49 M 97 47 L 97 43 M 97 43 M 97 41 L 97 37 M 97 37 M 97 35 L 97 31 M 97 31 M 97 29 L 97 25 M 97 25 M 97 23 L 97 19 M 97 19 M 97 17 L 97 13 M 97 13 M 97 11 L 97 7 M 97 7 M 97 5 L 97 2.25 L 95.75 2.25 M 95.75 2.25 M 93.75 2.25 L 89.75 2.25 M 89.75 2.25 M 87.75 2.25 L 83.75 2.25 M 83.75 2.25 M 81.75 2.25 L 77.75 2.25 M 77.75 2.25 M 75.75 2.25 L 71.75 2.25 M 71.75 2.25 M 69.75 2.25 L 65.75 2.25 M 65.75 2.25 M 63.75 2.25 L 59.75 2.25 M 59.75 2.25 M 57.75 2.25 L 53.75 2.25 M 53.75 2.25 M 51.75 2.25 L 47.75 2.25 M 47.75 2.25 M 45.75 2.25 L 41.75 2.25 M 41.75 2.25 M 39.75 2.25 L 35.75 2.25 M 35.75 2.25 M 33.75 2.25 L 29.75 2.25 M 29.75 2.25 M 27.75 2.25 L 23.75 2.25 M 23.75 2.25 M 21.75 2.25 L 17.75 2.25 M 17.75 2.25 M 15.75 2.25 L 11.75 2.25 M 11.75 2.25 M 9.75 2.25 L 5.75 2.25 M 5.75 2.25 M 3.75 2.25 L 3 2.25 Z" stroke-miterlimit="10" stroke-width="2" opacity="0"/></g></g></g></g></g><g transform="scale(1,1) matrix(1,0,0,1,82,50) translate(2,30.5)"><text fill="#000000" stroke="none" font-family="Arial" font-size="12px" font-style="normal" font-weight="normal" text-decoration="none" x="4.5" y="11">URL Collection</text></g><g transform="translate(0,0) matrix(1,0,0,1,180,62.5)"><g><g transform="translate(0,0) scale(1,0.5)"><g><g transform="scale(1,2)"><path fill="#FFFFFF" stroke="none" d="M 0 15 L 75 15 L 75 0 L 100 25 L 75 50 L 75 35 L 0 35 L 0 15 Z"/><path fill="none" stroke="#333333" d="M 0 15 M 0 15 L 75 15 L 75 0 L 100 25 L 75 50 L 75 35 L 0 35 L 0 15 Z" stroke-miterlimit="10" stroke-width="2"/></g></g></g></g></g><g transform="translate(0,0) matrix(1,0,0,1,280,50)"><g><g transform="translate(0,0) scale(1,0.75)"><g><path fill="#FFFFFF" stroke="none" d="M 0 0 L 100 0 Q 100 0 100 0 L 100 100 Q 100 100 100 100 L 0 100 Q 0 100 0 100 L 0 0 Q 0 0 0 0 Z"/><g transform="scale(1,1.3333333333333333)"><path fill="none" stroke="none" d="M 0 0 L 100 0 Q 100 0 100 0 L 100 75 Q 100 75 100 75 L 0 75 Q 0 75 0 75 L 0 0 Q 0 0 0 0 Z"/><path fill="none" stroke="#333333" d="M 0 0 M 0 0 L 100 0 Q 100 0 100 0 L 100 75 Q 100 75 100 75 L 0 75 Q 0 75 0 75 L 0 0 Q 0 0 0 0 Z" stroke-miterlimit="10" stroke-width="2"/></g></g><g><g transform="scale(1,1.3333333333333333)"><path fill="rgb(0,0,0)" stroke="none" d="M 2 1.5 L 2 72.75 L 97 72.75 L 97 2.25 L 3 2.25 Z" fill-opacity="0" opacity="0"/><path fill="none" stroke="#3C7626" d="M 2 1.5 M 2 1.5 L 2 5.5 M 2 5.5 M 2 7.5 L 2 11.5 M 2 11.5 M 2 13.5 L 2 17.5 M 2 17.5 M 2 19.5 L 2 23.5 M 2 23.5 M 2 25.5 L 2 29.5 M 2 29.5 M 2 31.5 L 2 35.5 M 2 35.5 M 2 37.5 L 2 41.5 M 2 41.5 M 2 43.5 L 2 47.5 M 2 47.5 M 2 49.5 L 2 53.5 M 2 53.5 M 2 55.5 L 2 59.5 M 2 59.5 M 2 61.5 L 2 65.5 M 2 65.5 M 2 67.5 L 2 71.5 M 2 71.5 M 2.75 72.75 L 6.75 72.75 M 6.75 72.75 M 8.75 72.75 L 12.75 72.75 M 12.75 72.75 M 14.75 72.75 L 18.75 72.75 M 18.75 72.75 M 20.75 72.75 L 24.75 72.75 M 24.75 72.75 M 26.75 72.75 L 30.75 72.75 M 30.75 72.75 M 32.75 72.75 L 36.75 72.75 M 36.75 72.75 M 38.75 72.75 L 42.75 72.75 M 42.75 72.75 M 44.75 72.75 L 48.75 72.75 M 48.75 72.75 M 50.75 72.75 L 54.75 72.75 M 54.75 72.75 M 56.75 72.75 L 60.75 72.75 M 60.75 72.75 M 62.75 72.75 L 66.75 72.75 M 66.75 72.75 M 68.75 72.75 L 72.75 72.75 M 72.75 72.75 M 74.75 72.75 L 78.75 72.75 M 78.75 72.75 M 80.75 72.75 L 84.75 72.75 M 84.75 72.75 M 86.75 72.75 L 90.75 72.75 M 90.75 72.75 M 92.75 72.75 L 96.75 72.75 M 96.75 72.75 M 97 71 L 97 67 M 97 67 M 97 65 L 97 61 M 97 61 M 97 59 L 97 55 M 97 55 M 97 53 L 97 49 M 97 49 M 97 47 L 97 43 M 97 43 M 97 41 L 97 37 M 97 37 M 97 35 L 97 31 M 97 31 M 97 29 L 97 25 M 97 25 M 97 23 L 97 19 M 97 19 M 97 17 L 97 13 M 97 13 M 97 11 L 97 7 M 97 7 M 97 5 L 97 2.25 L 95.75 2.25 M 95.75 2.25 M 93.75 2.25 L 89.75 2.25 M 89.75 2.25 M 87.75 2.25 L 83.75 2.25 M 83.75 2.25 M 81.75 2.25 L 77.75 2.25 M 77.75 2.25 M 75.75 2.25 L 71.75 2.25 M 71.75 2.25 M 69.75 2.25 L 65.75 2.25 M 65.75 2.25 M 63.75 2.25 L 59.75 2.25 M 59.75 2.25 M 57.75 2.25 L 53.75 2.25 M 53.75 2.25 M 51.75 2.25 L 47.75 2.25 M 47.75 2.25 M 45.75 2.25 L 41.75 2.25 M 41.75 2.25 M 39.75 2.25 L 35.75 2.25 M 35.75 2.25 M 33.75 2.25 L 29.75 2.25 M 29.75 2.25 M 27.75 2.25 L 23.75 2.25 M 23.75 2.25 M 21.75 2.25 L 17.75 2.25 M 17.75 2.25 M 15.75 2.25 L 11.75 2.25 M 11.75 2.25 M 9.75 2.25 L 5.75 2.25 M 5.75 2.25 M 3.75 2.25 L 3 2.25 Z" stroke-miterlimit="10" stroke-width="2" opacity="0"/></g></g></g></g></g><g transform="scale(1,1) matrix(1,0,0,1,282,50) translate(2,16.5)"><text fill="#000000" stroke="none" font-family="Arial" font-size="12px" font-style="normal" font-weight="normal" text-decoration="none" x="26" y="11">Report </text><text fill="#000000" stroke="none" font-family="Arial" font-size="12px" font-style="normal" font-weight="normal" text-decoration="none" x="14" y="25">Generation </text><text fill="#000000" stroke="none" font-family="Arial" font-size="12px" font-style="normal" font-weight="normal" text-decoration="none" x="13" y="39">using Yslow</text></g><g transform="translate(0,0) matrix(1,0,0,1,380,62.5)"><g><g transform="translate(0,0) scale(1,0.5)"><g><g transform="scale(1,2)"><path fill="#FFFFFF" stroke="none" d="M 0 15 L 75 15 L 75 0 L 100 25 L 75 50 L 75 35 L 0 35 L 0 15 Z"/><path fill="none" stroke="#333333" d="M 0 15 M 0 15 L 75 15 L 75 0 L 100 25 L 75 50 L 75 35 L 0 35 L 0 15 Z" stroke-miterlimit="10" stroke-width="2"/></g></g></g></g></g><g transform="translate(0,0) matrix(1,0,0,1,480,50)"><g><g transform="translate(0,0) scale(1,0.75)"><g><path fill="#FFFFFF" stroke="none" d="M 0 0 L 100 0 Q 100 0 100 0 L 100 100 Q 100 100 100 100 L 0 100 Q 0 100 0 100 L 0 0 Q 0 0 0 0 Z"/><g transform="scale(1,1.3333333333333333)"><path fill="none" stroke="none" d="M 0 0 L 100 0 Q 100 0 100 0 L 100 75 Q 100 75 100 75 L 0 75 Q 0 75 0 75 L 0 0 Q 0 0 0 0 Z"/><path fill="none" stroke="#333333" d="M 0 0 M 0 0 L 100 0 Q 100 0 100 0 L 100 75 Q 100 75 100 75 L 0 75 Q 0 75 0 75 L 0 0 Q 0 0 0 0 Z" stroke-miterlimit="10" stroke-width="2"/></g></g><g><g transform="scale(1,1.3333333333333333)"><path fill="rgb(0,0,0)" stroke="none" d="M 2 1.5 L 2 72.75 L 97 72.75 L 97 2.25 L 3 2.25 Z" fill-opacity="0" opacity="0"/><path fill="none" stroke="#3C7626" d="M 2 1.5 M 2 1.5 L 2 5.5 M 2 5.5 M 2 7.5 L 2 11.5 M 2 11.5 M 2 13.5 L 2 17.5 M 2 17.5 M 2 19.5 L 2 23.5 M 2 23.5 M 2 25.5 L 2 29.5 M 2 29.5 M 2 31.5 L 2 35.5 M 2 35.5 M 2 37.5 L 2 41.5 M 2 41.5 M 2 43.5 L 2 47.5 M 2 47.5 M 2 49.5 L 2 53.5 M 2 53.5 M 2 55.5 L 2 59.5 M 2 59.5 M 2 61.5 L 2 65.5 M 2 65.5 M 2 67.5 L 2 71.5 M 2 71.5 M 2.75 72.75 L 6.75 72.75 M 6.75 72.75 M 8.75 72.75 L 12.75 72.75 M 12.75 72.75 M 14.75 72.75 L 18.75 72.75 M 18.75 72.75 M 20.75 72.75 L 24.75 72.75 M 24.75 72.75 M 26.75 72.75 L 30.75 72.75 M 30.75 72.75 M 32.75 72.75 L 36.75 72.75 M 36.75 72.75 M 38.75 72.75 L 42.75 72.75 M 42.75 72.75 M 44.75 72.75 L 48.75 72.75 M 48.75 72.75 M 50.75 72.75 L 54.75 72.75 M 54.75 72.75 M 56.75 72.75 L 60.75 72.75 M 60.75 72.75 M 62.75 72.75 L 66.75 72.75 M 66.75 72.75 M 68.75 72.75 L 72.75 72.75 M 72.75 72.75 M 74.75 72.75 L 78.75 72.75 M 78.75 72.75 M 80.75 72.75 L 84.75 72.75 M 84.75 72.75 M 86.75 72.75 L 90.75 72.75 M 90.75 72.75 M 92.75 72.75 L 96.75 72.75 M 96.75 72.75 M 97 71 L 97 67 M 97 67 M 97 65 L 97 61 M 97 61 M 97 59 L 97 55 M 97 55 M 97 53 L 97 49 M 97 49 M 97 47 L 97 43 M 97 43 M 97 41 L 97 37 M 97 37 M 97 35 L 97 31 M 97 31 M 97 29 L 97 25 M 97 25 M 97 23 L 97 19 M 97 19 M 97 17 L 97 13 M 97 13 M 97 11 L 97 7 M 97 7 M 97 5 L 97 2.25 L 95.75 2.25 M 95.75 2.25 M 93.75 2.25 L 89.75 2.25 M 89.75 2.25 M 87.75 2.25 L 83.75 2.25 M 83.75 2.25 M 81.75 2.25 L 77.75 2.25 M 77.75 2.25 M 75.75 2.25 L 71.75 2.25 M 71.75 2.25 M 69.75 2.25 L 65.75 2.25 M 65.75 2.25 M 63.75 2.25 L 59.75 2.25 M 59.75 2.25 M 57.75 2.25 L 53.75 2.25 M 53.75 2.25 M 51.75 2.25 L 47.75 2.25 M 47.75 2.25 M 45.75 2.25 L 41.75 2.25 M 41.75 2.25 M 39.75 2.25 L 35.75 2.25 M 35.75 2.25 M 33.75 2.25 L 29.75 2.25 M 29.75 2.25 M 27.75 2.25 L 23.75 2.25 M 23.75 2.25 M 21.75 2.25 L 17.75 2.25 M 17.75 2.25 M 15.75 2.25 L 11.75 2.25 M 11.75 2.25 M 9.75 2.25 L 5.75 2.25 M 5.75 2.25 M 3.75 2.25 L 3 2.25 Z" stroke-miterlimit="10" stroke-width="2" opacity="0"/></g></g></g></g></g><g transform="scale(1,1) matrix(1,0,0,1,482,50) translate(2,9.5)"><text fill="#000000" stroke="none" font-family="Arial" font-size="12px" font-style="normal" font-weight="normal" text-decoration="none" x="11" y="11">Extraction of </text><text fill="#000000" stroke="none" font-family="Arial" font-size="12px" font-style="normal" font-weight="normal" text-decoration="none" x="12" y="25">Scores from </text><text fill="#000000" stroke="none" font-family="Arial" font-size="12px" font-style="normal" font-weight="normal" text-decoration="none" x="0" y="39">Report and CSV </text><text fill="#000000" stroke="none" font-family="Arial" font-size="12px" font-style="normal" font-weight="normal" text-decoration="none" x="6" y="53">file Generation</text></g><g transform="translate(0,0) matrix(1,0,0,1,580,62.5)"><g><g transform="translate(0,0) scale(1,0.5)"><g><g transform="scale(1,2)"><path fill="#FFFFFF" stroke="none" d="M 0 15 L 75 15 L 75 0 L 100 25 L 75 50 L 75 35 L 0 35 L 0 15 Z"/><path fill="none" stroke="#333333" d="M 0 15 M 0 15 L 75 15 L 75 0 L 100 25 L 75 50 L 75 35 L 0 35 L 0 15 Z" stroke-miterlimit="10" stroke-width="2"/></g></g></g></g></g><g transform="translate(0,0) matrix(1,0,0,1,680,50)"><g><g transform="translate(0,0) scale(1,0.75)"><g><path fill="#FFFFFF" stroke="none" d="M 0 0 L 100 0 Q 100 0 100 0 L 100 100 Q 100 100 100 100 L 0 100 Q 0 100 0 100 L 0 0 Q 0 0 0 0 Z"/><g transform="scale(1,1.3333333333333333)"><path fill="none" stroke="none" d="M 0 0 L 100 0 Q 100 0 100 0 L 100 75 Q 100 75 100 75 L 0 75 Q 0 75 0 75 L 0 0 Q 0 0 0 0 Z"/><path fill="none" stroke="#333333" d="M 0 0 M 0 0 L 100 0 Q 100 0 100 0 L 100 75 Q 100 75 100 75 L 0 75 Q 0 75 0 75 L 0 0 Q 0 0 0 0 Z" stroke-miterlimit="10" stroke-width="2"/></g></g><g><g transform="scale(1,1.3333333333333333)"><path fill="rgb(0,0,0)" stroke="none" d="M 2 1.5 L 2 72.75 L 97 72.75 L 97 2.25 L 3 2.25 Z" fill-opacity="0" opacity="0"/><path fill="none" stroke="#3C7626" d="M 2 1.5 M 2 1.5 L 2 5.5 M 2 5.5 M 2 7.5 L 2 11.5 M 2 11.5 M 2 13.5 L 2 17.5 M 2 17.5 M 2 19.5 L 2 23.5 M 2 23.5 M 2 25.5 L 2 29.5 M 2 29.5 M 2 31.5 L 2 35.5 M 2 35.5 M 2 37.5 L 2 41.5 M 2 41.5 M 2 43.5 L 2 47.5 M 2 47.5 M 2 49.5 L 2 53.5 M 2 53.5 M 2 55.5 L 2 59.5 M 2 59.5 M 2 61.5 L 2 65.5 M 2 65.5 M 2 67.5 L 2 71.5 M 2 71.5 M 2.75 72.75 L 6.75 72.75 M 6.75 72.75 M 8.75 72.75 L 12.75 72.75 M 12.75 72.75 M 14.75 72.75 L 18.75 72.75 M 18.75 72.75 M 20.75 72.75 L 24.75 72.75 M 24.75 72.75 M 26.75 72.75 L 30.75 72.75 M 30.75 72.75 M 32.75 72.75 L 36.75 72.75 M 36.75 72.75 M 38.75 72.75 L 42.75 72.75 M 42.75 72.75 M 44.75 72.75 L 48.75 72.75 M 48.75 72.75 M 50.75 72.75 L 54.75 72.75 M 54.75 72.75 M 56.75 72.75 L 60.75 72.75 M 60.75 72.75 M 62.75 72.75 L 66.75 72.75 M 66.75 72.75 M 68.75 72.75 L 72.75 72.75 M 72.75 72.75 M 74.75 72.75 L 78.75 72.75 M 78.75 72.75 M 80.75 72.75 L 84.75 72.75 M 84.75 72.75 M 86.75 72.75 L 90.75 72.75 M 90.75 72.75 M 92.75 72.75 L 96.75 72.75 M 96.75 72.75 M 97 71 L 97 67 M 97 67 M 97 65 L 97 61 M 97 61 M 97 59 L 97 55 M 97 55 M 97 53 L 97 49 M 97 49 M 97 47 L 97 43 M 97 43 M 97 41 L 97 37 M 97 37 M 97 35 L 97 31 M 97 31 M 97 29 L 97 25 M 97 25 M 97 23 L 97 19 M 97 19 M 97 17 L 97 13 M 97 13 M 97 11 L 97 7 M 97 7 M 97 5 L 97 2.25 L 95.75 2.25 M 95.75 2.25 M 93.75 2.25 L 89.75 2.25 M 89.75 2.25 M 87.75 2.25 L 83.75 2.25 M 83.75 2.25 M 81.75 2.25 L 77.75 2.25 M 77.75 2.25 M 75.75 2.25 L 71.75 2.25 M 71.75 2.25 M 69.75 2.25 L 65.75 2.25 M 65.75 2.25 M 63.75 2.25 L 59.75 2.25 M 59.75 2.25 M 57.75 2.25 L 53.75 2.25 M 53.75 2.25 M 51.75 2.25 L 47.75 2.25 M 47.75 2.25 M 45.75 2.25 L 41.75 2.25 M 41.75 2.25 M 39.75 2.25 L 35.75 2.25 M 35.75 2.25 M 33.75 2.25 L 29.75 2.25 M 29.75 2.25 M 27.75 2.25 L 23.75 2.25 M 23.75 2.25 M 21.75 2.25 L 17.75 2.25 M 17.75 2.25 M 15.75 2.25 L 11.75 2.25 M 11.75 2.25 M 9.75 2.25 L 5.75 2.25 M 5.75 2.25 M 3.75 2.25 L 3 2.25 Z" stroke-miterlimit="10" stroke-width="2" opacity="0"/></g></g></g></g></g><g transform="scale(1,1) matrix(1,0,0,1,682,50) translate(2,30.5)"><text fill="#000000" stroke="none" font-family="Arial" font-size="12px" font-style="normal" font-weight="normal" text-decoration="none" x="11" y="11">Visualization</text></g></g></svg>